<svg xmlns="http://www.w3.org/2000/svg" viewBox="0 0 200 197" width="200" height="197">
	<style>
		tspan { white-space:pre }
		.shp0 { fill: #b9ced9 } 
		.shp1 { fill: #a1bdcc } 
		.shp2 { fill: #8aadbf } 
		.shp3 { fill: #789eb2 } 
		.shp4 { fill: none } 
		.shp5 { fill: #f80000 } 
		.shp6 { fill: #ffffff } 
	</style>
	<path id="Layer" class="shp0" d="M57.5 20.1C28.5 20.1 5 16.05 5 11.05L5 108.81C5 113.81 28.5 117.86 57.5 117.86C86.5 117.86 110 113.81 110 108.81L110 11.05C110 16.05 86.5 20.1 57.5 20.1Z" />
	<path id="Layer" class="shp1" d="M5 11.05L5 108.81C5 113.81 28.5 117.86 57.5 117.86L57.5 20.1C28.5 20.1 5 16.05 5 11.05Z" />
	<path id="Layer" class="shp1" d="M102.76 15.64L102.76 113.4C107.36 112.06 110 110.49 110 108.81L110 11.05C110 12.73 107.36 14.3 102.76 15.64Z" />
	<path id="Layer" class="shp2" d="M57.5 20.1C28.47 20.1 5 16.06 5 11.05C5 6.05 28.47 2 57.5 2C86.53 2 110 6.05 110 11.05C110 16.06 86.53 20.1 57.5 20.1Z" />
	<path id="Layer" class="shp3" d="M5 72.6C5 77.6 28.5 81.65 57.5 81.65C86.5 81.65 110 77.6 110 72.6L110 79.84C110 84.84 86.5 88.89 57.5 88.89C28.5 88.89 5 84.84 5 79.84L5 72.6Z" />
	<path id="Layer" class="shp3" d="M110 40.02C110 45.02 86.5 49.07 57.5 49.07C28.5 49.07 5 45.02 5 40.02L5 47.26C5 52.26 28.5 56.31 57.5 56.31C86.5 56.31 110 52.26 110 47.26L110 40.02Z" />
	<path id="Layer" class="shp4" d="M-43 -46L245 -46L245 242L-43 242L-43 -46Z" />
	<g id="db-logobox">
		<path id="Layer" class="shp5" d="M83 68L185 68C191.64 68 197 73.36 197 80L197 182C197 188.64 191.64 194 185 194L83 194C76.36 194 71 188.64 71 182L71 80C71 73.36 76.36 68 83 68Z" />
	</g>
	<path id="Layer" fill-rule="evenodd" class="shp6" d="M103.34 106.98L121.43 106.98C130.61 106.98 134.2 112.57 134.2 121.35C134.2 126.8 132.6 135.45 120.83 135.45L113.38 135.45L113.38 155L103.34 155L103.34 106.98ZM113.38 128.06L118.97 128.06C121.96 128.06 124.02 124.81 124.02 121.61C124.02 117.69 122.96 114.37 118.44 114.37L113.38 114.37L113.38 128.06Z" />
	<path id="Layer" class="shp6" d="M140.98 155L140.98 106.98L151.02 106.98L151.02 147.02L166.05 147.02L166.05 155L140.98 155Z" />
</svg>